<svg xmlns="http://www.w3.org/2000/svg" width="37" height="38" viewBox="0 0 37 38">
    <g fill="none" fill-rule="evenodd">
        <g fill-rule="nonzero">
            <g>
                <path fill="#4285F4" d="M36.628 19.103c0-1.537-.125-2.658-.395-3.82H18.688v6.934h10.298c-.207 1.724-1.328 4.32-3.82 6.063l-.035.233 5.547 4.297.385.039c3.53-3.26 5.565-8.057 5.565-13.746" transform="translate(-69 -1025) translate(69 1025)"/>
                <path fill="#34A853" d="M18.688 37.375c5.045 0 9.28-1.661 12.375-4.526l-5.897-4.569c-1.578 1.1-3.696 1.87-6.478 1.87-4.942 0-9.137-3.26-10.632-7.766l-.219.018-5.768 4.464-.076.21c3.073 6.105 9.386 10.299 16.695 10.299" transform="translate(-69 -1025) translate(69 1025)"/>
                <path fill="#FBBC05" d="M8.056 22.384c-.394-1.163-.623-2.41-.623-3.696 0-1.288.229-2.534.603-3.696l-.01-.248-5.842-4.536-.19.09C.726 12.833 0 15.678 0 18.689c0 3.01.727 5.855 1.993 8.388l6.063-4.692" transform="translate(-69 -1025) translate(69 1025)"/>
                <path fill="#EB4335" d="M18.688 7.226c3.509 0 5.876 1.516 7.225 2.782l5.274-5.15C27.948 1.849 23.733 0 18.687 0 11.38 0 5.068 4.194 1.994 10.299l6.043 4.693c1.515-4.506 5.71-7.766 10.652-7.766" transform="translate(-69 -1025) translate(69 1025)"/>
            </g>
        </g>
    </g>
</svg>
