<svg xmlns="http://www.w3.org/2000/svg" width="33" height="32" viewBox="0 0 33 32">
    <g fill="none" fill-rule="evenodd">
        <g fill="#FF9929">
            <path d="M573.5 939.25l-7.337 3.857c-1.124.591-2.515.159-3.106-.965-.235-.448-.317-.96-.231-1.46l1.401-8.17-5.935-5.785c-.91-.887-.929-2.343-.042-3.252.353-.363.816-.598 1.316-.671l8.203-1.192 3.669-7.433c.562-1.139 1.94-1.607 3.08-1.045.453.224.82.591 1.044 1.045l3.669 7.433 8.203 1.192c1.257.183 2.128 1.35 1.945 2.607-.073.5-.308.963-.67 1.316l-5.936 5.786 1.401 8.17c.215 1.252-.626 2.44-1.878 2.655-.499.086-1.011.005-1.46-.23l-7.336-3.858z" transform="translate(-557 -912)"/>
        </g>
    </g>
</svg>
